<svg xmlns="http://www.w3.org/2000/svg" viewBox="0 0 16 16" fill="currentColor" shape-rendering="crispEdges">
<rect x="2" y="1" width="3" height="1"/>
<rect x="10" y="1" width="2" height="1"/>
<rect x="2" y="2" width="3" height="1"/>
<rect x="9" y="2" width="2" height="1"/>
<rect x="2" y="3" width="3" height="1"/>
<rect x="8" y="3" width="2" height="1"/>
<rect x="2" y="4" width="3" height="1"/>
<rect x="7" y="4" width="2" height="1"/>
<rect x="2" y="5" width="3" height="1"/>
<rect x="6" y="5" width="2" height="1"/>
<rect x="2" y="6" width="5" height="1"/>
<rect x="2" y="7" width="4" height="1"/>
<rect x="2" y="8" width="4" height="1"/>
<rect x="2" y="9" width="5" height="1"/>
<rect x="2" y="10" width="3" height="1"/>
<rect x="6" y="10" width="2" height="1"/>
<rect x="2" y="11" width="3" height="1"/>
<rect x="7" y="11" width="2" height="1"/>
<rect x="2" y="12" width="3" height="1"/>
<rect x="8" y="12" width="2" height="1"/>
<rect x="2" y="13" width="3" height="1"/>
<rect x="9" y="13" width="2" height="1"/>
<rect x="2" y="14" width="3" height="1"/>
<rect x="10" y="14" width="2" height="1"/>
</svg>
